HIERARCHY
ROOT Hips
{
	OFFSET 0.00000 0.00000 0.00000
	CHANNELS 6 Xposition Yposition Zposition Zrotation Yrotation Xrotation 
	JOINT LHipJoint
	{
		OFFSET 0 0 0
		CHANNELS 3 Zrotation Yrotation Xrotation
		JOINT LeftHip
		{
			OFFSET 1.53139 -1.83434 0.76626
			CHANNELS 3 Zrotation Yrotation Xrotation
			JOINT LeftKnee
			{
				OFFSET 2.56112 -7.03663 0.00000
				CHANNELS 3 Zrotation Yrotation Xrotation
				JOINT LeftAnkle
				{
					OFFSET 2.59983 -7.14299 0.00000
					CHANNELS 3 Zrotation Yrotation Xrotation
					JOINT LeftToe
					{
						OFFSET 0.13742 -0.37757 2.00054
						CHANNELS 3 Zrotation Yrotation Xrotation
						End Site
						{
							OFFSET 0.00000 -0.00000 1.02897
						}
					}
				}
			}
		}
	}
	JOINT RHipJoint
	{
		OFFSET 0 0 0
		CHANNELS 3 Zrotation Yrotation Xrotation
		JOINT RightHip
		{
			OFFSET -1.40122 -1.83435 0.76627
			CHANNELS 3 Zrotation Yrotation Xrotation
			JOINT RightKnee
			{
				OFFSET -2.54052 -6.98003 0.00000
				CHANNELS 3 Zrotation Yrotation Xrotation
				JOINT RightAnkle
				{
					OFFSET -2.63179 -7.23079 0.00000
					CHANNELS 3 Zrotation Yrotation Xrotation
					JOINT RightToe
					{
						OFFSET -0.24131 -0.66299 2.03908
						CHANNELS 3 Zrotation Yrotation Xrotation
						End Site
						{
							OFFSET -0.00000 -0.00000 1.07391
						}
					}
				}
			}
		}
	}
	JOINT lowerback
	{
		OFFSET 0 0 0
		CHANNELS 3 Zrotation Yrotation Xrotation
		JOINT Chest
		{
			OFFSET 0.01174 2.10302 -0.29778
			CHANNELS 3 Zrotation Yrotation Xrotation
			JOINT Chest2
			{
				OFFSET 0.00772 2.13227 -0.01247
				CHANNELS 3 Zrotation Yrotation Xrotation
				JOINT lowerneck
				{
					OFFSET 0 0 0
					CHANNELS 3 Zrotation Yrotation Xrotation
					JOINT Neck
					{
						OFFSET -0.09219 1.60848 0.31481
						CHANNELS 3 Zrotation Yrotation Xrotation
						JOINT Head
						{
							OFFSET 0.13974 1.65456 -0.31134
							CHANNELS 3 Zrotation Yrotation Xrotation
							End Site
							{
								OFFSET 0.04742 1.69515 -0.14578
							}
						}
					}
				}
				JOINT LeftCollar
				{
					OFFSET 0 0 0
					CHANNELS 3 Zrotation Yrotation Xrotation
					JOINT LeftShoulder
					{
						OFFSET 3.24909 1.02882 -0.23993
CHANNELS 3 Zrotation Xrotation Yrotation
						JOINT LeftElbow
						{
OFFSET 0 -5.329550 -0.000000
CHANNELS 3 Zrotation Xrotation Yrotation
							JOINT LeftWrist
							{
OFFSET 0 -3.692320 -0.000000
CHANNELS 3 Zrotation Xrotation Yrotation
								JOINT lhand
								{
									OFFSET 0 0 0
CHANNELS 3 Zrotation Xrotation Yrotation
									JOINT LFingers
									{
OFFSET 0 -0.536600 -0.000000
CHANNELS 3 Zrotation Xrotation Yrotation
										End Site
										{
OFFSET 0 -0.432620 -0.000000
										}
									}
								}
								JOINT LThumb
								{
OFFSET 0 0.000000 0.000000
CHANNELS 3 Zrotation Xrotation Yrotation
									End Site
									{
OFFSET 0 -0.439220 0.439220
									}
								}
							}
						}
					}
				}
				JOINT RightCollar
				{
					OFFSET 0 0 0
					CHANNELS 3 Zrotation Yrotation Xrotation
					JOINT RightShoulder
					{
						OFFSET -3.21387 0.93002 -0.34594
CHANNELS 3 Zrotation Xrotation Yrotation
						JOINT RightElbow
						{
OFFSET 0 -5.234310 0.000000
CHANNELS 3 Zrotation Xrotation Yrotation
							JOINT RightWrist
							{
OFFSET 0 -3.553010 -0.000000
CHANNELS 3 Zrotation Xrotation Yrotation
								JOINT rhand
								{
									OFFSET 0 0 0
CHANNELS 3 Zrotation Xrotation Yrotation
									JOINT RFingers
									{
OFFSET 0 -0.772520 -0.000000
CHANNELS 3 Zrotation Xrotation Yrotation
										End Site
										{
OFFSET 0 -0.622830 -0.000000
										}
									}
								}
								JOINT RThumb
								{
OFFSET 0 0.000000 0.000000
CHANNELS 3 Zrotation Xrotation Yrotation
									End Site
									{
OFFSET 0 -0.632340 0.632340
									}
								}
							}
						}
					}
				}
			}
		}
	}
}
MOTION
Frames: 9
Frame Time: 0.008333333333333333
-4.109802 17.796327 7.910575 1.539097 10.633390 -4.780001 0.000000 0.000000 0.000000 -12.531457 -8.127172 -13.402734 3.256271 11.098437 32.612963 0.152928 -0.487541 -7.229296 0.003381 -0.262347 -0.720831 0.000000 0.000000 0.000000 17.235766 -0.638851 -1.941842 -2.506643 -9.849879 28.491953 -0.952310 1.368199 -18.034424 -0.081676 1.843428 -5.073131 1.945425 2.569715 12.778278 0.119837 3.691307 1.622929 -1.598545 1.780047 -5.331725 -9.263890 2.835413 -17.168274 4.496683 6.587893 41.362930 5.063218 1.971154 17.743295 0.000000 0.000000 0.000000 1.579232 4.058435 -11.785487 22.136831 -33.130899 6.660635 23.725020 15.576893 -26.081721 0.000000 0.000000 0.000000 -7.125000 0.000000 0.000000 -6.936599 57.978262 2.210113 0.000000 0.000000 0.000000 -3.191077 2.512847 12.111435 -19.177354 -29.638391 -5.118253 -15.840179 2.974816 -7.193437 0.000000 0.000000 0.000000 7.125000 0.000000 0.000000 8.002217 22.527193 4.367275
-4.057139 17.808738 7.927226 1.504236 10.948182 -4.756346 0.000000 0.000000 0.000000 -11.653272 -8.586126 -13.126079 3.151865 10.936640 32.066697 0.137303 0.013883 -7.004603 0.003052 0.303479 0.833858 0.000000 0.000000 0.000000 17.160734 -0.662214 -1.609830 -2.442811 -9.733073 28.116675 -0.944068 0.978565 -18.061847 -0.078672 1.808794 -4.977528 1.909159 2.503590 12.852307 0.117347 3.600436 1.607210 -1.570155 1.734885 -5.394717 -9.098613 2.966217 -17.495203 4.516807 6.788150 41.613113 5.115918 2.060664 17.957190 0.000000 0.000000 0.000000 1.523408 4.235958 -11.232125 21.718525 -32.656961 6.433491 23.605671 15.601993 -25.446881 0.000000 0.000000 0.000000 -7.125000 0.000000 0.000000 -6.791086 57.293376 2.051813 0.000000 0.000000 0.000000 -3.333684 2.454671 12.064617 -19.112756 -29.558472 -5.086345 -15.923766 2.775579 -7.057250 0.000000 0.000000 0.000000 7.125000 0.000000 0.000000 7.945750 22.663998 4.310912
-3.994422 17.809486 7.948445 1.477326 11.085920 -4.709573 0.000000 0.000000 0.000000 -10.831858 -8.837071 -12.894716 3.029778 10.742976 31.417948 0.124561 0.398770 -6.822050 0.000529 -0.071755 -0.197059 0.000000 0.000000 0.000000 17.035675 -0.609355 -1.372800 -2.394790 -9.644041 27.831613 -0.932099 0.642337 -18.044947 -0.091211 1.946972 -5.359252 1.970504 2.541320 12.844712 0.072039 3.656928 1.555797 -1.662791 1.759770 -5.435770 -8.922908 2.997134 -17.403702 4.388477 6.808262 41.500928 5.015960 2.087769 17.881424 0.000000 0.000000 0.000000 1.515513 4.356401 -10.536803 21.084172 -31.926188 6.094613 23.696391 15.923264 -24.707447 0.000000 0.000000 0.000000 -7.125000 0.000000 0.000000 -6.386599 56.543963 1.812955 0.000000 0.000000 0.000000 -3.383072 2.542479 11.841371 -19.073667 -29.510087 -5.067071 -15.988426 2.632177 -7.027812 0.000000 0.000000 0.000000 7.125000 0.000000 0.000000 7.899598 22.691832 4.280266
-3.926086 17.813463 7.975863 1.650900 11.174333 -4.569717 0.000000 0.000000 0.000000 -10.243418 -8.955487 -12.592980 2.903663 10.537316 30.735109 0.113904 0.646111 -6.643628 0.001042 0.018747 0.051459 0.000000 0.000000 0.000000 16.672842 -0.562976 -1.145631 -2.348298 -9.556631 27.552564 -0.920160 0.290283 -18.039120 -0.123053 2.257513 -6.218116 1.877856 2.614663 12.712997 -0.050387 3.732085 1.506628 -1.746075 1.797836 -5.409410 -8.754830 3.001445 -17.315212 4.247157 6.800017 41.423170 4.909848 2.097635 17.831354 0.000000 0.000000 0.000000 1.506209 4.479189 -9.826625 20.506276 -31.247161 5.791763 23.737405 16.232254 -24.258517 0.000000 0.000000 0.000000 -7.125000 0.000000 0.000000 -6.165838 56.084591 1.680649 0.000000 0.000000 0.000000 -3.424278 2.633661 11.604788 -19.024206 -29.448664 -5.042748 -15.921516 2.542680 -7.082444 0.000000 0.000000 0.000000 7.125000 0.000000 0.000000 7.946675 22.638167 4.316139
-3.859826 17.824388 7.999981 1.822870 11.329959 -4.477698 0.000000 0.000000 0.000000 -9.603185 -9.271842 -12.176239 2.787963 10.343188 30.095861 0.099130 0.794597 -6.291169 0.041065 1.069719 2.943608 0.000000 0.000000 0.000000 16.312338 -0.621303 -0.871181 -2.293210 -9.451718 27.218933 -0.904559 -0.060394 -18.003038 -0.177251 2.709005 -7.469909 1.707833 2.628008 12.677591 -0.119173 3.721677 1.501698 -1.719288 1.795810 -5.401511 -8.772528 2.991842 -17.433114 4.240240 6.812841 41.434782 4.919289 2.096368 17.868197 0.000000 0.000000 0.000000 1.418671 4.568759 -9.160440 20.072010 -30.728418 5.568330 23.331530 16.211235 -23.834395 0.000000 0.000000 0.000000 -7.125000 0.000000 0.000000 -6.434253 55.557307 1.671834 0.000000 0.000000 0.000000 -3.625536 2.584705 11.630690 -18.948750 -29.354903 -5.005664 -15.967244 2.461905 -7.086532 0.000000 0.000000 0.000000 7.125000 0.000000 0.000000 7.913151 22.632088 4.298677
-3.792896 17.840687 8.021561 1.745314 11.488196 -4.511983 0.000000 0.000000 0.000000 -8.672922 -9.826944 -11.559094 2.670743 10.141421 29.436409 0.082406 0.987708 -5.875418 0.208938 2.865258 7.909023 0.000000 0.000000 0.000000 16.238663 -0.566390 -0.479477 -2.238522 -9.346112 26.884193 -0.884706 -0.419837 -17.933962 -0.198009 2.865157 -7.903645 1.783384 2.617074 12.734925 -0.140949 3.717458 1.507888 -1.786617 1.791681 -5.420566 -8.733935 2.999028 -17.509565 4.278326 6.802988 41.421440 4.931578 2.103871 17.879872 0.000000 0.000000 0.000000 1.394147 4.594313 -8.403312 19.598235 -30.154324 5.328523 23.187639 16.514807 -23.730572 0.000000 0.000000 0.000000 -7.125000 0.000000 0.000000 -6.546947 55.419459 1.679634 0.000000 0.000000 0.000000 -3.773701 2.517669 11.615972 -18.845666 -29.226391 -4.955228 -16.135941 2.501582 -7.122655 0.000000 0.000000 0.000000 7.125000 0.000000 0.000000 7.788817 22.588246 4.237727
-3.721382 17.841590 8.045516 1.735379 11.665041 -4.516548 0.000000 0.000000 0.000000 -7.929316 -10.142305 -11.145100 2.554311 9.935522 28.768713 0.055366 1.260627 -5.075413 0.176330 2.601031 7.175803 0.000000 0.000000 0.000000 16.065934 -0.477319 -0.073876 -2.185783 -9.242633 26.557439 -0.868983 -0.693269 -17.878924 -0.192249 2.823568 -7.787859 1.813678 2.612184 12.714957 -0.197890 3.711466 1.516734 -1.860766 1.788283 -5.394648 -8.691875 3.016980 -17.542395 4.314951 6.799643 41.356659 4.937226 2.118588 17.849111 0.000000 0.000000 0.000000 1.389524 4.564262 -7.632345 19.066795 -29.500751 5.064170 23.502325 17.276409 -24.386800 0.000000 0.000000 0.000000 -7.125000 0.000000 0.000000 -6.467728 56.168930 1.776451 0.000000 0.000000 0.000000 -3.873645 2.489187 11.572953 -18.780286 -29.144717 -4.923345 -16.158568 2.559370 -7.061524 0.000000 0.000000 0.000000 7.125000 0.000000 0.000000 7.774246 22.650277 4.218489
-3.645664 17.831031 8.065265 1.643720 11.838953 -4.503271 0.000000 0.000000 0.000000 -7.169064 -10.225317 -10.926650 2.434254 9.716920 28.065165 0.025247 1.442749 -3.868158 0.025397 0.856648 2.355891 0.000000 0.000000 0.000000 15.966230 -0.409385 0.255890 -2.139801 -9.151346 26.270003 -0.852417 -0.987914 -17.827676 -0.197792 2.863834 -7.899762 1.920065 2.534511 12.792165 -0.198014 3.625704 1.437597 -1.913268 1.740840 -5.517918 -8.749722 3.090535 -17.575498 4.336380 6.934260 41.361757 4.982280 2.167023 17.842067 0.000000 0.000000 0.000000 1.301941 4.696935 -6.896493 18.625413 -28.950323 4.848417 24.082537 17.967537 -25.406291 0.000000 0.000000 0.000000 -7.125000 0.000000 0.000000 -6.255313 57.356661 1.897207 0.000000 0.000000 0.000000 -4.074013 2.606789 11.760726 -18.796617 -29.165101 -4.931342 -15.986678 2.607870 -6.947045 0.000000 0.000000 0.000000 7.125000 0.000000 0.000000 7.903724 22.774939 4.267327
-3.566776 17.831182 8.088890 1.492292 11.904407 -4.512394 0.000000 0.000000 0.000000 -6.301860 -10.452637 -10.406900 2.303825 9.472120 27.283659 0.004069 1.724463 -2.822674 0.018496 0.878533 2.414542 0.000000 0.000000 0.000000 15.936644 -0.275540 0.557735 -2.110428 -9.092360 26.084545 -0.844056 -1.305710 -17.875338 -0.241769 3.164165 -8.736126 2.049345 2.493943 12.797040 -0.172516 3.592359 1.376940 -1.955656 1.720110 -5.579856 -8.647752 3.179250 -17.544049 4.258216 7.066537 41.371836 4.950605 2.225800 17.835559 0.000000 0.000000 0.000000 1.253324 4.903320 -6.547898 18.322028 -28.567470 4.702168 24.367032 17.581854 -25.499502 0.000000 0.000000 0.000000 -7.125000 0.000000 0.000000 -5.983434 57.516716 1.838268 0.000000 0.000000 0.000000 -4.226922 2.731215 11.771635 -18.828254 -29.204691 -4.946780 -15.855295 2.743592 -7.086513 0.000000 0.000000 0.000000 7.125000 0.000000 0.000000 7.994829 22.636594 4.343037
